<svg xmlns="http://www.w3.org/2000/svg" width="185" height="238" fill="none" viewBox="0 0 185 238"><path fill="#3E8727" d="M184.8 92c0-50.8-41.4-92-92.4-92C41.4 0 0 41.2 0 92c0 51 58.4 101.8 92.4 101.8 34 0 92.4-50.9 92.4-101.7Z"/><mask id="mask0_41_3" width="185" height="194" x="0" y="0" maskUnits="userSpaceOnUse" style="mask-type:luminance"><path fill="#fff" d="M184.8 92c0-50.8-41.4-92-92.4-92C41.4 0 0 41.2 0 92c0 51 58.4 101.8 92.4 101.8 34 0 92.4-50.9 92.4-101.7Z"/></mask><g mask="url(#mask0_41_3)"><path fill="#2E641F" fill-opacity=".6" d="M104 1A105 105 0 0 1 155 91c0 41-33.3 82-66.5 102.6l4.1.2c34 0 92.3-50.8 92.3-101.6A92 92 0 0 0 104 1Z"/><ellipse cx="91.4" cy="18.1" fill="#2C6919" rx="63.3" ry="24.1"/><ellipse cx="91.4" cy="167.7" fill="#2C6919" rx="63.3" ry="24.1"/></g><path fill="#D3D3D3" d="M92.2 214.7c-1 0-2-1.1-2-2.4v-19.1c0-1.3 1-2.4 2-2.4 1.1 0 2 1 2 2.4v19c0 1.4-.9 2.5-2 2.5ZM80.4 214.3c-1 .2-2.2-.6-2.6-1.8l-5-18.5c-.3-1.3.3-2.5 1.4-2.8 1-.3 2.2.5 2.5 1.8l5 18.4c.3 1.3-.3 2.6-1.3 2.9ZM104 214.3c-1-.3-1.6-1.6-1.2-2.9l5-18.4c.2-1.3 1.4-2 2.4-1.8 1.1.3 1.7 1.5 1.4 2.8l-5 18.5c-.3 1.2-1.5 2-2.5 1.8Z"/><path fill="#3E8727" d="M84.3 238h16.2c3.6 0 6.7-2.6 7.1-6.2l2.9-22H74.3l2.8 22a7.2 7.2 0 0 0 7.2 6.2Z"/><path fill="#2C6919" d="M103.3 209.9v6.9a14 14 0 0 1-4.2 10 14.6 14.6 0 0 1-10.3 4.2H77.3l.1.8a7.1 7.1 0 0 0 7.1 6.2h16c3.7 0 6.7-2.6 7.2-6.2l2.8-22h-7.2Z"/><path fill="#43922C" d="M68.1 195.8h48.5l14-17H54.1l14 17Z"/><path fill="#2C621D" fill-opacity=".6" d="m117.3 195.8 14.3-17h-24.1v17h9.8Z"/></svg>