<svg xmlns="http://www.w3.org/2000/svg" width="1000" height="1000" viewBox="0 0 1000 1000"><g fill="#FFF" fill-rule="evenodd"><path d="m475 0 23 500L521 0zm25 497L565 3l42 7zM500 497 648 22l40 14zm0 0L730 56l38 22zm0 2 303-395 33 28z"/><path d="m500 497 367-336 28 33zm0 0 419-268 22 38zm0 0 460-188 15 40zm0 0 487-107 8 43zm0 1 500 23v-46zm0 2 495 65-8 42zm0 0 475 148-15 40zm0 0 441 230-22 38zm0 0 395 303-28 33zm0 0 336 367-33 28zm0 0 268 419-38 22zm0 0 188 460-40 15zm0 0 107 487-42 8zm-25 500h46l-23-500zm22-500-64 495-43-8zm0 0L349 975l-40-15zm0 0L267 941l-38-22zm0 0L194 895l-33-28z"/><path d="M499 500 132 836l-28-33zm-2 0L78 768l-22-38zm0 0L36 688l-14-40zM497 500 10 607l-7-42zM0 521l500-23L0 475zm497-24L3 433l7-43zM497 497 22 349l14-40zm0 0L56 267l22-38zm2 0L104 194l28-33z"/><path d="M497 499 161 132l33-28zm0-2L229 78l38-22zm0 0L309 36l40-14zM497 497 390 10l43-7zM475 0l23 500L521 0z"/></g></svg>