<svg xmlns="http://www.w3.org/2000/svg" width="34" height="33" viewBox="0 0 34 33"><g fill="#D27E1B" fill-rule="evenodd"><path d="M31.4 23.18h-3.5a.58.58 0 0 1-.59-.59c0-.32.26-.58.58-.58h3.51c.74 0 1.33-.6 1.33-1.33V2.5c0-.74-.6-1.33-1.33-1.33H20.15c-.74 0-1.33.6-1.33 1.33v18.18c0 .73.6 1.33 1.33 1.33h3.54a.58.58 0 0 1 0 1.17h-3.54a2.5 2.5 0 0 1-2.5-2.5V2.5a2.5 2.5 0 0 1 2.5-2.5H31.4a2.5 2.5 0 0 1 2.5 2.5v18.18a2.5 2.5 0 0 1-2.5 2.5"/><path d="M30.38 20.59h-4.44a.58.58 0 0 1-.58-.58c0-.33.26-.59.58-.59h4.44l.01-3.37a.58.58 0 1 1 1.16 0v3.36c0 .65-.53 1.18-1.17 1.18M20.58 7.21a.58.58 0 0 1-.58-.58V3.56c0-.65.53-1.18 1.18-1.18h8.2a.58.58 0 0 1 0 1.17h-8.2l-.02 3.08c0 .32-.26.58-.58.58M13.75 32.5H2.49A2.5 2.5 0 0 1 0 30V11.83a2.5 2.5 0 0 1 2.49-2.5h3.93a.58.58 0 0 1 0 1.17l-3.93-.01c-.73 0-1.33.6-1.33 1.34V30c0 .74.6 1.34 1.33 1.34h11.26c.73 0 1.33-.6 1.33-1.34V11.83c0-.74-.6-1.34-1.33-1.34h-3.8a.58.58 0 0 1-.58-.58c0-.32.26-.59.58-.59h3.8a2.5 2.5 0 0 1 2.49 2.5V30a2.5 2.5 0 0 1-2.5 2.5"/><path d="M12.72 29.91h-8.2a.58.58 0 0 1-.59-.58c0-.32.26-.58.58-.58h8.2l.02-3.09a.58.58 0 1 1 1.16 0v3.07c0 .65-.52 1.18-1.17 1.18M2.92 16.54a.58.58 0 0 1-.58-.58v-3.07c0-.65.53-1.18 1.18-1.18h4.14a.58.58 0 0 1 0 1.16H3.52l-.02 3.09c0 .32-.26.58-.58.58M9.95 22.73H6.42a.58.58 0 0 1-.58-.58c0-.33.26-.59.58-.59h3.53a.58.58 0 0 1 0 1.17"/><path d="M10.65 23.83a.58.58 0 0 1-.53-.35l-1.9-4.38-1.9 4.38a.58.58 0 0 1-.76.3.58.58 0 0 1-.3-.77l2.43-5.6a.58.58 0 0 1 1.06 0l2.43 5.6a.58.58 0 0 1-.53.82M8.12 8.7a.58.58 0 0 1-.58-.59v-7.1a.58.58 0 1 1 1.16 0v7.1c0 .32-.26.58-.58.58"/><path d="M4.85 4.66a.59.59 0 0 1-.42-.99L7.7.3a.6.6 0 0 1 .83 0l3.28 3.38c.22.23.22.6-.01.83a.58.58 0 0 1-.82-.01L8.12 1.54 5.26 4.49a.58.58 0 0 1-.41.17M25.8 31.99a.58.58 0 0 1-.57-.59v-7.1a.58.58 0 1 1 1.16 0v7.1c0 .33-.26.59-.58.59"/><path d="M25.8 32.3a.58.58 0 0 1-.4-.18l-3.28-3.38a.58.58 0 0 1 .01-.82c.23-.23.6-.22.82 0l2.86 2.96 2.86-2.95c.22-.23.59-.24.82-.01.23.22.23.6 0 .82l-3.27 3.38a.58.58 0 0 1-.41.18M24.3 10.62a.8.8 0 0 0-.29.05c-.34.14-.53.51-.53 1.04 0 1.01 1.5 2.08 2.3 2.53.8-.45 2.3-1.52 2.3-2.53 0-.54-.2-.93-.54-1.06-.4-.15-.9.05-1.33.52a.6.6 0 0 1-.86 0c-.32-.35-.7-.55-1.05-.55m1.48 4.87a.58.58 0 0 1-.26-.06c-.33-.17-3.2-1.66-3.2-3.72 0-1.02.47-1.81 1.28-2.12.69-.27 1.5-.11 2.17.4.68-.53 1.48-.7 2.18-.43.8.31 1.29 1.11 1.29 2.15 0 2.06-2.88 3.55-3.2 3.72a.57.57 0 0 1-.26.06"/></g></svg>