<svg xmlns="http://www.w3.org/2000/svg" width="25" height="34" fill="none" viewBox="0 0 25 34"><g filter="url(#a)"><path fill="#fff" d="M12.93.6a1 1 0 0 0-1.43.9c0 5.38-2.66 7.4-5.48 9.56-2.7 2.06-5.5 4.2-5.5 9.17 0 6.74 5.37 12.23 11.98 12.23 6.6 0 11.98-5.49 11.98-12.23 0-8.79-8.02-17.95-11.55-19.63ZM8.5 26.22c0-1.6.82-2.24 1.95-3.12 1.05-.83 2.31-1.82 2.82-3.74 1.43 1.5 3.22 4.29 3.22 6.86 0 2.34-1.79 4.24-4 4.24-2.2 0-3.99-1.9-3.99-4.24Zm9.44 2.57a6.4 6.4 0 0 0 .55-2.57c0-4.22-3.65-8.7-5.55-9.64a1 1 0 0 0-1.44.9c0 2.25-1.01 3.04-2.29 4.04-1.27 1-2.7 2.13-2.7 4.7 0 .92.2 1.78.54 2.57a10.29 10.29 0 0 1-4.54-8.56c0-3.98 2.19-5.65 4.72-7.59 2.65-2.02 5.62-4.28 6.17-9.37 3.48 2.72 9.08 10.07 9.08 16.96 0 3.58-1.8 6.73-4.54 8.56Z"/></g><defs><filter id="a" width="23.97" height="32.96" x=".51" y=".5" color-interpolation-filters="sRGB" filterUnits="userSpaceOnUse"><feFlood flood-opacity="0" result="BackgroundImageFix"/><feColorMatrix in="SourceAlpha" result="hardAlpha" values="0 0 0 0 0 0 0 0 0 0 0 0 0 0 0 0 0 0 127 0"/><feOffset dy="1"/><feColorMatrix values="0 0 0 0 0 0 0 0 0 0 0 0 0 0 0 0 0 0 0.501961 0"/><feBlend in2="BackgroundImageFix" result="effect1_dropShadow_1310_83"/><feBlend in="SourceGraphic" in2="effect1_dropShadow_1310_83" result="shape"/></filter></defs></svg>