<svg xmlns="http://www.w3.org/2000/svg" width="26" height="34" fill="none" viewBox="0 0 26 34"><path fill="#891140" d="M12.8 0C5.8 0 0 5.3 0 11.7c0 3.9 2 7.5 5.6 9.7a4 4 0 0 1 1.9 3.4v.1c0 .4.3.6.6.6h1.4v3h-.7c-.4 0-.7.3-.7.6v4.3c0 .3.3.6.7.6h8c.3 0 .6-.3.6-.6V29a.6.6 0 0 0-.6-.6H16v-3h1.3c.4 0 .7-.2.7-.6v-.1a4 4 0 0 1 1.9-3.4c3.5-2.2 5.6-5.8 5.6-9.7C25.6 5.3 19.8 0 12.8 0Zm2 24.3h-1.4v-23c3.2.6 5.7 5 5.7 10.4 0 3.5-1 6.8-2.9 8.7-.8 1-1.3 2.3-1.4 3.9Zm-4 0c-.1-1.6-.6-3-1.5-3.9-1.7-2-2.8-5.2-2.8-8.7C6.5 6.3 9 2 12.1 1.3v23h-1.3Zm-4.5-4c-3.2-2-5-5.2-5-8.6 0-4.4 3-8.2 7.3-9.7-2 2.1-3.4 5.7-3.4 9.7 0 3.8 1.2 7.4 3.2 9.6.6.6 1 1.8 1 3h-.6a5.3 5.3 0 0 0-2.5-4Zm9.9 12.4H9.4v-3h6.8v3Zm-5.4-4.2v-3h4v3h-4Zm8.5-8.2a5.3 5.3 0 0 0-2.5 4h-.7c0-1.2.5-2.4 1-3 2-2.2 3.2-5.8 3.2-9.6 0-4-1.3-7.6-3.3-9.7 4.3 1.5 7.3 5.3 7.3 9.7 0 3.4-1.9 6.7-5 8.6Z"/></svg>