<svg xmlns="http://www.w3.org/2000/svg" width="40" height="14" fill="none" viewBox="0 0 40 14"><path fill="url(#a)" fill-rule="evenodd" d="M37.501 0H2.499A2.495 2.495 0 0 0 .19 1.543a2.371 2.371 0 0 0-.142.468A2.48 2.48 0 0 0 0 2.5v.002a3.821 3.821 0 0 0 .622 2.093 3.897 3.897 0 0 0 .73.829 3.806 3.806 0 0 0 .935.586l16.468 7.264a3.962 3.962 0 0 0 1.644.34 4.036 4.036 0 0 0 1.246-.208 3.99 3.99 0 0 0 .392-.156l15.692-7.206a3.835 3.835 0 0 0 .93-.6A3.894 3.894 0 0 0 40 2.5v-.002a2.504 2.504 0 0 0-.914-1.932 2.515 2.515 0 0 0-1.34-.555A2.493 2.493 0 0 0 37.501 0Z" clip-rule="evenodd"/><defs><linearGradient id="a" x1="-145" x2="-145" y1="12" y2="-2" gradientUnits="userSpaceOnUse"><stop stop-color="#FFC518"/><stop offset="1" stop-color="#FF7B65"/></linearGradient></defs></svg>