<svg xmlns="http://www.w3.org/2000/svg" width="34" height="34" viewBox="0 0 34 34"><g fill="#09FBF3" fill-rule="evenodd"><path d="M33.4 28.94c-.19 0-.38-.1-.48-.3L21.3 6.39a.55.55 0 1 1 .98-.51L33.9 28.13a.56.56 0 0 1-.5.81M.73 28.94a.55.55 0 0 1-.49-.81L11.9 5.8a.55.55 0 0 1 .74-.24c.28.14.38.48.24.75L1.22 28.65c-.1.19-.3.3-.49.3M18.19 23.14a1.1 1.1 0 1 0-2.2 0 1.1 1.1 0 0 0 2.2 0M18.19 9.28a1.1 1.1 0 1 0-2.2 0 1.1 1.1 0 0 0 2.2 0M22.33 29.51a1.1 1.1 0 1 0-2.2 0 1.1 1.1 0 0 0 2.2 0M14.04 29.51a1.1 1.1 0 1 0-2.2 0 1.1 1.1 0 0 0 2.2 0M14.04 16.21a1.1 1.1 0 1 0-2.2 0 1.1 1.1 0 0 0 2.2 0M5.75 29.51a1.1 1.1 0 1 0-2.2 0 1.1 1.1 0 0 0 2.2 0M26.48 23.14a1.1 1.1 0 1 0-2.2 0 1.1 1.1 0 0 0 2.2 0M30.62 29.51a1.1 1.1 0 1 0-2.2 0 1.1 1.1 0 0 0 2.2 0M17 6.68A3.34 3.34 0 1 1 18.62.42a.55.55 0 0 1-.54.97 2.22 2.22 0 0 0-3.3 1.95c0 1.23 1 2.23 2.22 2.23a2.23 2.23 0 0 0 2.04-3.12.55.55 0 0 1 1.01-.45A3.34 3.34 0 0 1 17 6.68M8.8 26.48a3.34 3.34 0 1 1 1.62-6.26.55.55 0 0 1-.54.97 2.22 2.22 0 0 0-3.31 1.95 2.23 2.23 0 1 0 4.27-.9.55.55 0 1 1 1.01-.44 3.34 3.34 0 0 1-3.05 4.68M21.23 19.55a3.34 3.34 0 1 1 1.63-6.26.55.55 0 0 1-.54.97A2.22 2.22 0 0 0 19 16.2a2.23 2.23 0 1 0 4.27-.9c-.13-.27 0-.6.28-.72.28-.13.6 0 .73.28a3.34 3.34 0 0 1-3.05 4.68"/><path d="M31.63 33.4H2.37A2.38 2.38 0 0 1 0 31a.55.55 0 1 1 1.1 0c0 .7.57 1.27 1.27 1.27h29.26c.7 0 1.26-.56 1.26-1.27a.55.55 0 1 1 1.11 0 2.38 2.38 0 0 1-2.37 2.38"/></g></svg>