<svg xmlns="http://www.w3.org/2000/svg" width="15" height="14" viewBox="0 0 15 14"><defs><linearGradient id="a" x1="-.95" x2="12.87" y1="11.97" y2="-1.99" gradientUnits="userSpaceOnUse"><stop offset="0%" stop-color="#FCA200"/><stop offset="9.59%" stop-color="#FCA810"/><stop offset="28.22%" stop-color="#FDB738"/><stop offset="54.03%" stop-color="#FDCF7A"/><stop offset="85.73%" stop-color="#FEEFD4"/><stop offset="100%" stop-color="#FFF"/></linearGradient><linearGradient id="b" x1="-2.2" x2="5.32" y1="6.62" y2="-1.22" gradientUnits="userSpaceOnUse"><stop offset="12.29%" stop-color="#FF726D" stop-opacity=".7"/><stop offset="25.25%" stop-color="#FE8054" stop-opacity=".6"/><stop offset="47.06%" stop-color="#FD9530" stop-opacity=".42"/><stop offset="67.46%" stop-color="#FDA415" stop-opacity=".26"/><stop offset="85.71%" stop-color="#FCAD06" stop-opacity=".11"/><stop offset="100%" stop-color="#FCB000" stop-opacity="0"/></linearGradient><linearGradient id="c" x1="-2.6" x2="5.33" y1="6.12" y2="-1.27" gradientUnits="userSpaceOnUse"><stop offset="0%" stop-color="#FF726D" stop-opacity=".7"/><stop offset="67.14%" stop-color="#FD9E20" stop-opacity=".23"/><stop offset="100%" stop-color="#FCB000" stop-opacity="0"/></linearGradient><linearGradient id="d" x1="-4.79" x2="3.4" y1="8.09" y2="-.53" gradientUnits="userSpaceOnUse"><stop offset="0%" stop-color="#FCB000"/><stop offset="3.63%" stop-color="#FCB510"/><stop offset="19.25%" stop-color="#FDC84E"/><stop offset="34.71%" stop-color="#FED984"/><stop offset="49.65%" stop-color="#FEE7B0"/><stop offset="63.94%" stop-color="#FEF1D2"/><stop offset="77.43%" stop-color="#FFF9EB"/><stop offset="89.79%" stop-color="#FFFDFA"/><stop offset="100%" stop-color="#FFF"/></linearGradient></defs><path d="M7.04 12.04c-1.22.65-2.41 1.29-3.6 1.9-.37.2-.82-.15-.76-.58.18-1.36.4-2.72.61-4.09a.54.54 0 0 0-.15-.47L.16 5.9c-.32-.3-.13-.82.3-.9l4.11-.63a.54.54 0 0 0 .4-.3C5.6 2.82 6.21 1.56 6.81.3c.2-.4.74-.4.94 0 .6 1.26 1.22 2.52 1.84 3.77.08.16.23.27.4.3 1.37.2 2.74.42 4.1.64.44.07.63.6.31.9L11.42 8.8a.54.54 0 0 0-.15.47c.22 1.37.43 2.73.61 4.1.06.42-.4.77-.77.57-1.18-.61-2.37-1.25-3.59-1.9a.52.52 0 0 0-.48 0Z"/><path fill="url(#a)" fill-opacity=".2" d="M11.75 13.37c-.18-1.34-.39-2.69-.6-4.04a6.11 6.11 0 0 1-6.63-4.85l-4.06.63c-.43.07-.61.6-.3.9.97.93 1.96 1.88 2.94 2.85.13.12.18.3.16.47-.22 1.35-.43 2.7-.61 4.04-.06.43.39.77.76.57 1.17-.6 2.35-1.24 3.55-1.88a.51.51 0 0 1 .48 0c1.2.64 2.39 1.28 3.55 1.88.37.2.82-.14.76-.57Z"/><path fill="url(#b)" fill-opacity=".2" d="M2.57 7.89a2.23 2.23 0 0 1 .9-2.84l1.01-.57-4.03.65c-.42.07-.6.6-.3.9.97.96 1.95 1.94 2.92 2.93l-.5-1.07Z"/><path fill="url(#c)" fill-opacity=".2" d="M6.1 12.29a2.24 2.24 0 0 1-2.43-1.67l-.23-1.1c-.23 1.3-.44 2.59-.63 3.87-.07.41.4.74.79.56l3.68-1.8-1.17.14Z"/><path fill="url(#d)" fill-opacity=".2" d="m11.99 7.89-.5 1.07c.97-.99 1.95-1.97 2.92-2.92.3-.3.12-.84-.3-.91l-4.03-.65 1.01.57c.97.55 1.38 1.82.9 2.84Z"/></svg>