<svg xmlns="http://www.w3.org/2000/svg" width="34" height="25" viewBox="0 0 34 25"><g fill="#0354B6" fill-rule="nonzero"><path d="M12.98 1.005c-1.11 0-2.01.9-2.01 2.01v18.091c0 1.11.9 2.01 2.01 2.01h8.04c1.11 0 2.01-.9 2.01-2.01V3.016c0-1.111-.9-2.01-2.01-2.01h-8.04Zm0-1.005h8.04a3.015 3.015 0 0 1 3.015 3.015v18.091a3.015 3.015 0 0 1-3.015 3.016h-8.04a3.015 3.015 0 0 1-3.015-3.016V3.016A3.015 3.015 0 0 1 12.98 0Z"/><path d="M17 15.076a3.015 3.015 0 1 0 0-6.03 3.015 3.015 0 0 0 0 6.03Zm0 1.005a4.02 4.02 0 1 1 0-8.04 4.02 4.02 0 0 1 0 8.04ZM33.584 19.486v1.005h-3.518a3.518 3.518 0 0 1-3.518-3.518V7.035a3.518 3.518 0 0 1 3.518-3.517h3.518v1.005h-3.518a2.513 2.513 0 0 0-2.513 2.512v9.938a2.513 2.513 0 0 0 2.513 2.513h3.518ZM.416 19.486v1.005h3.518a3.518 3.518 0 0 0 3.518-3.518V7.035a3.518 3.518 0 0 0-3.518-3.517H.416v1.005h3.518a2.513 2.513 0 0 1 2.513 2.512v9.938a2.513 2.513 0 0 1-2.513 2.513H.416Z"/></g></svg>