<svg xmlns="http://www.w3.org/2000/svg" width="34" height="34" viewBox="0 0 34 34"><g fill="#018033" fill-rule="evenodd"><path d="M5.45 5.915a.596.596 0 0 1-.422-1.018c.046-.047.092-.092.14-.137a.597.597 0 1 1 .824.862l-.12.118a.594.594 0 0 1-.422.175M22.248 22.248a.98.98 0 0 1-1.669-.691c0-.262.102-.507.286-.692a1.001 1.001 0 0 1 1.383 0 .98.98 0 0 1 0 1.383m-6.022-4.64a.979.979 0 0 1 1.382-1.382.979.979 0 0 1 0 1.382 1 1 0 0 1-1.382 0m-3.257 4.64a.979.979 0 0 1-1.383-1.383.971.971 0 0 1 .691-.286c.262 0 .507.101.692.286.184.185.286.43.286.692a.971.971 0 0 1-.286.691m-1.383-9.28a.97.97 0 0 1-.287-.69c0-.262.102-.507.287-.692a.971.971 0 0 1 .691-.287.97.97 0 0 1 .692.287c.184.185.286.43.286.691a.972.972 0 0 1-.286.692c-.37.369-1.014.369-1.383 0m9.28-1.383a.971.971 0 0 1 .69-.287.97.97 0 0 1 .692.287c.185.185.286.43.286.691a.97.97 0 0 1-.286.691c-.37.37-1.014.37-1.383 0a.97.97 0 0 1-.286-.69c0-.262.102-.507.286-.692m.692 7.8c-.376 0-.735.095-1.054.273l-1.69-1.69a2.177 2.177 0 0 0 0-2.105l1.69-1.69c.319.178.678.274 1.054.274.58 0 1.125-.226 1.534-.636.41-.41.636-.955.636-1.535s-.225-1.125-.635-1.535a2.157 2.157 0 0 0-1.535-.636c-.58 0-1.125.226-1.535.636-.41.41-.636.955-.636 1.535 0 .375.096.735.274 1.054l-1.69 1.69a2.177 2.177 0 0 0-2.106 0l-1.69-1.69c.178-.319.274-.679.274-1.054 0-.58-.226-1.125-.636-1.535a2.157 2.157 0 0 0-1.535-.636c-.58 0-1.125.226-1.534.636-.41.41-.637.955-.637 1.535s.226 1.125.636 1.535c.41.41.956.636 1.535.636.375 0 .735-.096 1.054-.273l1.69 1.69a2.177 2.177 0 0 0 0 2.105l-1.69 1.69a2.157 2.157 0 0 0-1.054-.274c-.58 0-1.125.226-1.534.636-.41.41-.637.955-.637 1.535s.226 1.124.637 1.534c.423.424.979.635 1.534.635.556 0 1.112-.211 1.535-.635.41-.41.636-.955.636-1.534 0-.376-.096-.735-.274-1.054l1.69-1.689a2.157 2.157 0 0 0 2.108 0l1.688 1.689a2.157 2.157 0 0 0-.274 1.054c0 .58.226 1.124.636 1.534.423.424.979.635 1.535.635.555 0 1.111-.211 1.534-.635.41-.41.636-.955.636-1.534 0-.58-.225-1.125-.635-1.535a2.157 2.157 0 0 0-1.535-.636"/><path d="M27.782 22.525a.594.594 0 0 0-.119-.051 12.014 12.014 0 0 0 1.342-4.96h3.622a15.686 15.686 0 0 1-1.818 6.766l-3.027-1.755ZM17.513 27.81v-1.663a.596.596 0 1 0-1.193 0v1.663c-5.541-.3-9.996-4.755-10.296-10.297h1.663a.596.596 0 1 0 0-1.193H6.024c.3-5.541 4.755-9.996 10.296-10.296v1.663a.597.597 0 0 0 1.193 0V6.024c5.542.3 9.997 4.755 10.297 10.296h-1.663a.597.597 0 0 0 0 1.193h1.663c-.3 5.542-4.755 9.997-10.297 10.297Zm4.975-.009 1.744 3.033a15.69 15.69 0 0 1-6.719 1.793v-3.622a12.014 12.014 0 0 0 4.924-1.323c.013.04.03.08.051.119Zm-6.168 4.825a15.61 15.61 0 0 1-6.764-1.82l1.753-3.024a.618.618 0 0 0 .052-.119 12.016 12.016 0 0 0 4.96 1.342v3.62ZM3.6 25.263l3.028-1.74a.59.59 0 0 0 .105-.08 12.197 12.197 0 0 0 3.622 3.636.603.603 0 0 0-.079.105l-1.75 3.02a15.842 15.842 0 0 1-4.925-4.94Zm-2.392-7.75h3.621a12.018 12.018 0 0 0 1.323 4.924.576.576 0 0 0-.119.051l-3.03 1.743a15.616 15.616 0 0 1-1.795-6.718Zm4.844-6.204a.576.576 0 0 0 .12.05 12.013 12.013 0 0 0-1.343 4.961H1.205c.088-2.396.707-4.69 1.815-6.769l3.032 1.758Zm5.294-5.276L9.599 2.995a15.568 15.568 0 0 1 6.721-1.79v3.624a12.01 12.01 0 0 0-4.923 1.323.593.593 0 0 0-.051-.12Zm6.167-4.825a15.61 15.61 0 0 1 6.765 1.82l-1.753 3.024a.591.591 0 0 0-.051.118 12.012 12.012 0 0 0-4.96-1.34V1.207Zm12.72 7.362-3.027 1.741a.592.592 0 0 0-.105.079 12.195 12.195 0 0 0-3.624-3.636.577.577 0 0 0 .08-.104l1.751-3.02a15.837 15.837 0 0 1 4.926 4.94Zm-1.228 7.75a12.01 12.01 0 0 0-1.324-4.925.578.578 0 0 0 .12-.05l3.03-1.742a15.61 15.61 0 0 1 1.795 6.717h-3.621ZM16.917 0a16.776 16.776 0 0 0-10.11 3.352.596.596 0 1 0 .714.956c.34-.254.688-.493 1.044-.717l1.746 3.037a.59.59 0 0 0 .08.104 12.196 12.196 0 0 0-3.636 3.623.594.594 0 0 0-.105-.079L3.622 8.521c.282-.444.584-.878.913-1.297a.596.596 0 1 0-.939-.736A16.745 16.745 0 0 0 0 16.917c0 9.328 7.589 16.917 16.917 16.917 4.194 0 8.217-1.546 11.328-4.353a.597.597 0 0 0-.799-.886 15.723 15.723 0 0 1-2.18 1.644l-1.744-3.033a.614.614 0 0 0-.078-.105 12.194 12.194 0 0 0 3.634-3.622c.032.029.067.056.106.079l3.026 1.754a15.722 15.722 0 0 1-1.615 2.134.596.596 0 1 0 .886.8 16.883 16.883 0 0 0 4.353-11.33C33.834 7.59 26.245 0 16.917 0Z"/></g></svg>