<svg xmlns="http://www.w3.org/2000/svg" width="34" height="26" viewBox="0 0 34 26"><g fill="#26A52B" fill-rule="evenodd"><path d="M2.426 3.019a.576.576 0 0 1-.41-.98l.072-.072a.575.575 0 1 1 .798.831l-.05.049a.574.574 0 0 1-.41.172M32.132 23.622l-.213-.001-.224-.002-.224.002c-.657.004-1.28.01-1.707-.414-.249-.247-.374-.593-.374-1.028V6.91a2.304 2.304 0 0 0-2.301-2.3H6.912a2.304 2.304 0 0 0-2.302 2.3V22.18c0 .435-.126.781-.374 1.028-.427.424-1.048.419-1.707.414l-.224-.002-.224.002c-.657.004-1.28.01-1.707-.414C.126 22.96 0 22.614 0 22.179V6.91c0-1.114.273-2.223.79-3.205a.576.576 0 1 1 1.02.536 5.759 5.759 0 0 0-.657 2.67v15.267c0 .163.032.21.033.21.086.085.587.083.886.08l.233-.002.233.001c.298.003.8.006.886-.08 0 0 .034-.046.034-.21V6.912a3.457 3.457 0 0 1 3.454-3.453h20.177a3.458 3.458 0 0 1 3.453 3.453V22.18c0 .163.033.21.034.21.086.085.587.083.886.08l.233-.002.233.001c.298.003.8.006.886-.08 0 0 .033-.046.033-.21v-2.88a.576.576 0 0 1 1.153 0v2.88c0 .436-.126.782-.374 1.029-.38.378-.916.415-1.494.415"/><path d="M33.424 18.145a.576.576 0 0 1-.577-.576V6.91a5.765 5.765 0 0 0-5.759-5.759H6.912c-.914 0-1.787.209-2.597.62A.576.576 0 1 1 3.793.744 6.826 6.826 0 0 1 6.912 0h20.176A6.92 6.92 0 0 1 34 6.91V17.57a.576.576 0 0 1-.576.576M23.211 25.477a4.36 4.36 0 0 1-3.777-6.523.576.576 0 0 1 .999.574 3.206 3.206 0 0 0 2.778 4.797 3.206 3.206 0 0 0 3.203-3.203 3.206 3.206 0 0 0-4.557-2.903.577.577 0 0 1-.489-1.044 4.36 4.36 0 0 1 6.198 3.947 4.36 4.36 0 0 1-4.355 4.355"/><path d="M19.766 12.67h3.17V9.5h-3.17v3.17Zm-4.322 0h3.17V9.5h-3.17v3.17Zm-4.322 4.322h3.17v-3.169h-3.17v3.17Zm0 4.322h3.17v-3.169h-3.17v3.17Zm0-8.644h3.17V9.5h-3.17v3.17Zm16.035 0h-3.07V9.5h3.07a.576.576 0 0 0 0-1.152h-3.07V6.331a.576.576 0 1 0-1.152 0v2.017h-3.17V6.331a.576.576 0 1 0-1.152 0v2.017h-3.17V6.331a.576.576 0 1 0-1.152 0v2.017h-3.17V6.331a.576.576 0 1 0-1.152 0v2.017H6.9a.576.576 0 1 0 0 1.153h3.07v3.17H6.9a.576.576 0 1 0 0 1.152h3.07v3.17H6.9a.576.576 0 1 0 0 1.152h3.07v3.17H6.9a.576.576 0 1 0 0 1.152H17a.576.576 0 0 0 0-1.153h-1.556v-3.169H17a.576.576 0 0 0 0-1.153h-1.556v-3.169h3.17v1.44a.576.576 0 0 0 1.152 0v-1.44h3.17v1.44a.576.576 0 0 0 1.152 0v-1.44h3.069a.576.576 0 0 0 0-1.153Z"/></g></svg>