<svg xmlns="http://www.w3.org/2000/svg" width="34" height="31" viewBox="0 0 34 31"><g fill="#6A2DB3" fill-rule="evenodd"><path d="M19.312 30.763c-.52 0-1.04-.063-1.551-.19L1.854 26.64A2.437 2.437 0 0 1 0 24.27V12.1a.654.654 0 0 1 1.307 0V24.27c0 .521.355.974.86 1.1l15.908 3.934a5.148 5.148 0 0 0 2.888-.123l10.961-3.72c.46-.157.768-.587.768-1.072v-1.898a.653.653 0 1 1 1.308 0v1.898a2.44 2.44 0 0 1-1.656 2.31l-10.96 3.72a6.462 6.462 0 0 1-2.072.343M.654 10.617A.654.654 0 0 1 0 9.963v-.086a.654.654 0 0 1 1.308 0v.086c0 .361-.293.654-.654.654M33.346 21.14a.654.654 0 0 1-.654-.653V6.147c0-.495-.317-.929-.79-1.078l-11.07-3.52a5.174 5.174 0 0 0-2.645-.126L2.201 4.882a1.14 1.14 0 0 0-.893 1.107v1.84a.654.654 0 0 1-1.308 0v-1.84c0-1.141.81-2.144 1.924-2.385L17.91.145a6.467 6.467 0 0 1 3.32.157l11.069 3.52A2.431 2.431 0 0 1 34 6.149v14.339c0 .36-.293.653-.654.653"/><path d="M26.408 14.067a.896.896 0 0 0-.895.895.896.896 0 0 0 1.789 0 .896.896 0 0 0-.894-.895m0 3.097a2.204 2.204 0 0 1-2.202-2.202c0-1.215.987-2.202 2.202-2.202 1.215 0 2.202.987 2.202 2.202a2.204 2.204 0 0 1-2.202 2.202M9.98 14.067a.896.896 0 0 0-.894.895c0 .493.401.894.894.894a.896.896 0 0 0 .895-.894.896.896 0 0 0-.895-.895m0 3.097a2.204 2.204 0 0 1-2.202-2.202c0-1.215.987-2.202 2.202-2.202 1.215 0 2.202.987 2.202 2.202a2.204 2.204 0 0 1-2.202 2.202M5.864 8.776a.896.896 0 0 0-.894.894c0 .493.401.894.894.894a.896.896 0 0 0 .895-.894.896.896 0 0 0-.895-.894m0 3.096A2.204 2.204 0 0 1 3.662 9.67c0-1.215.987-2.202 2.202-2.202 1.215 0 2.202.987 2.202 2.202a2.204 2.204 0 0 1-2.202 2.202M5.864 19.066a.896.896 0 0 0-.894.894c0 .493.401.895.894.895a.896.896 0 0 0 .895-.895.896.896 0 0 0-.895-.894m0 3.096a2.204 2.204 0 0 1-2.202-2.202c0-1.215.987-2.202 2.202-2.202 1.215 0 2.202.987 2.202 2.202a2.204 2.204 0 0 1-2.202 2.202M14.39 7.893a.896.896 0 0 0-.895.895.896.896 0 0 0 1.789 0 .896.896 0 0 0-.894-.895m0 3.097a2.204 2.204 0 0 1-2.202-2.202c0-1.215.987-2.203 2.202-2.203 1.215 0 2.202.988 2.202 2.203a2.204 2.204 0 0 1-2.202 2.202M14.39 20.23a.896.896 0 0 0-.895.894.896.896 0 0 0 1.789 0 .896.896 0 0 0-.894-.894m0 3.096a2.204 2.204 0 0 1-2.202-2.202c0-1.215.987-2.202 2.202-2.202 1.215 0 2.202.987 2.202 2.202a2.204 2.204 0 0 1-2.202 2.202M19.684 28.45a.654.654 0 0 1-.654-.654V3.032a.654.654 0 0 1 1.308 0v24.764c0 .361-.293.654-.654.654"/></g></svg>